<?xml version="1.0" encoding="UTF-8" standalone="no"?>
<!DOCTYPE svg PUBLIC "-//W3C//DTD SVG 1.1//EN" "http://www.w3.org/Graphics/SVG/1.1/DTD/svg11.dtd">
<svg width="4000.00" height="4000.00" viewBox="0.00 0.00 4000.00 4000.00" xmlns="http://www.w3.org/2000/svg" xmlns:xlink="http://www.w3.org/1999/xlink">
<g stroke-linecap="round" id="Layer_51">
<path d="M2902.98,1526.15 C2903.03,1526.08 2883.06,1548.73 2874.72,1554.95 C2870.08,1558.52 2859.50,1566.44 2853.58,1570.79 C2844.84,1577.13 2839.75,1580.16 2830.48,1584.91 C2822.84,1588.63 2802.34,1598.18 2794.83,1601.54 C2789.16,1604.04 2780.21,1606.35 2775.29,1607.73 C2771.29,1608.69 2757.54,1613.87 2755.32,1614.52 C2750.76,1615.82 2742.39,1617.92 2741.81,1618.12 C2735.47,1620.35 2723.65,1628.58 2722.39,1629.11 C2719.11,1630.52 2714.38,1633.12 2712.73,1634.39 C2712.44,1634.62 2709.47,1638.32 2708.00,1640.83 C2707.27,1642.10 2706.77,1644.38 2707.36,1645.59 C2707.94,1646.69 2710.90,1650.45 2711.67,1650.99 C2712.04,1651.24 2730.64,1660.48 2735.15,1662.40 C2741.02,1664.86 2775.64,1672.28 2782.15,1675.03 C2787.87,1677.45 2820.36,1684.80 2825.32,1686.29 C2829.33,1687.51 2843.02,1693.70 2844.41,1694.83 C2846.65,1696.30 2848.36,1698.31 2850.67,1699.91 C2851.06,1700.18 2858.42,1704.81 2859.48,1705.49 C2861.79,1706.99 2870.22,1716.90 2876.23,1722.92 C2878.18,1724.89 2880.26,1729.25 2881.11,1732.03 C2882.88,1737.89 2888.82,1749.04 2890.79,1752.69 C2893.92,1758.47 2897.81,1763.37 2899.76,1765.58 C2899.90,1765.77 2900.45,1767.76 2902.06,1769.43 C2906.31,1765.93 2909.95,1763.27 2910.15,1763.06 C2911.02,1762.17 2921.72,1751.29 2926.52,1745.99 C2927.01,1745.44 2934.44,1733.49 2939.17,1724.38 C2942.05,1718.74 2950.85,1695.62 2953.65,1688.13 C2955.84,1682.17 2958.50,1666.05 2958.77,1663.48 C2959.47,1656.48 2958.51,1640.29 2958.17,1637.57 C2954.63,1613.29 2949.60,1587.61 2949.51,1587.35 C2945.85,1576.64 2937.30,1560.54 2929.75,1547.94 C2922.91,1536.48 2907.00,1523.34 2906.32,1522.95 C2905.84,1522.64 2903.79,1521.32 2903.62,1521.04 C2902.53,1521.09 2901.98,1522.13 2901.74,1522.50 C2896.47,1529.18 2881.41,1548.29 2878.14,1551.35 C2868.88,1559.95 2851.15,1575.14 2840.99,1580.70 C2834.49,1584.26 2828.05,1588.79 2827.48,1589.00 C2826.97,1589.18 2826.20,1589.16 2825.18,1588.95" fill="none" stroke="rgb(255, 255, 255)" stroke-width="50.00" stroke-opacity="1.00" stroke-linejoin="round"/>
<path d="M2788.06,1676.11 C2790.62,1676.95 2814.26,1682.47 2815.56,1682.92 C2826.13,1686.56 2844.44,1696.53 2852.36,1700.97 C2854.53,1702.15 2859.62,1706.84 2861.94,1709.17 C2866.81,1714.70 2877.26,1725.15 2878.61,1726.81 C2880.86,1729.75 2890.02,1740.98 2890.56,1742.08 C2890.68,1742.33 2890.68,1742.47 2890.56,1742.48" fill="none" stroke="rgb(255, 255, 255)" stroke-width="50.00" stroke-opacity="1.00" stroke-linejoin="round"/>
</g>
<g stroke-linecap="round" id="Layer_52">
<path d="M2729.56,1640.83 C2734.00,1641.34 2744.06,1639.92 2747.08,1638.78 C2749.81,1637.72 2762.07,1634.34 2768.31,1633.28 C2770.52,1632.87 2795.68,1624.90 2795.69,1624.90 C2814.07,1617.96 2830.29,1610.18 2836.43,1607.18 C2845.45,1602.73 2858.23,1595.46 2860.10,1594.25 C2860.66,1593.88 2874.98,1582.50 2879.53,1579.05 C2884.59,1575.69 2897.50,1565.27 2898.59,1564.27 C2900.82,1562.20 2906.17,1553.18 2906.27,1553.05 C2906.27,1553.05 2906.95,1551.44 2906.95,1551.44 C2906.96,1551.40 2907.16,1555.08 2907.85,1557.92 C2910.72,1569.73 2918.07,1584.47 2918.45,1585.44 C2920.53,1590.85 2922.55,1599.82 2923.12,1606.04 C2923.61,1611.67 2924.62,1630.72 2924.92,1655.77 C2924.88,1657.35 2921.69,1675.54 2921.33,1677.50 C2919.70,1685.15 2919.71,1693.44 2919.76,1694.28 C2920.11,1699.83 2912.78,1717.86 2911.13,1722.65 C2911.03,1723.13 2907.99,1731.83 2907.92,1733.59 C2907.92,1733.82 2908.00,1734.08 2908.17,1734.35 C2908.17,1734.35 2907.99,1736.22 2907.99,1736.22 C2908.53,1735.78 2907.10,1729.54 2906.28,1727.74 C2905.17,1725.34 2902.39,1721.58 2900.10,1718.08 C2898.47,1715.62 2876.49,1692.88 2869.27,1686.76 C2868.15,1685.82 2857.35,1678.44 2852.47,1676.71 C2852.06,1676.53 2826.31,1666.08 2812.90,1662.26 C2803.17,1659.97 2792.80,1655.90 2786.26,1654.26 C2780.45,1652.87 2775.79,1651.48 2773.38,1651.03 C2769.81,1650.39 2754.66,1648.53 2752.00,1648.47 C2750.19,1648.26 2746.70,1648.25 2746.15,1648.46 C2746.15,1648.46 2746.49,1646.19 2746.49,1646.19" fill="none" stroke="rgb(0, 0, 255)" stroke-width="25.00" stroke-opacity="1.00" stroke-linejoin="round"/>
<path d="M2790.45,1642.31 C2790.71,1642.41 2800.98,1641.32 2810.72,1638.80 C2822.59,1635.51 2829.31,1633.19 2838.47,1629.33 C2847.39,1625.43 2857.95,1619.52 2863.65,1616.27 C2870.35,1612.52 2884.52,1602.41 2885.37,1601.81 C2889.97,1598.50 2894.95,1592.54 2902.94,1583.51 C2903.89,1582.44 2904.49,1581.80 2904.97,1581.63 C2905.90,1584.34 2908.51,1596.46 2909.40,1605.16 C2909.76,1608.82 2908.77,1621.40 2908.31,1627.87 C2908.09,1630.66 2907.03,1635.37 2906.41,1637.94 C2905.89,1640.57 2904.65,1656.06 2903.79,1663.30 C2903.16,1667.66 2901.77,1680.17 2901.32,1687.19 C2900.47,1695.94 2900.79,1700.98 2900.79,1701.25 C2901.00,1701.48 2899.99,1699.42 2898.21,1697.51 C2894.17,1693.23 2887.90,1686.96 2879.13,1679.26 C2872.06,1673.06 2864.33,1667.23 2861.52,1665.60 C2860.08,1664.76 2851.33,1660.05 2847.24,1658.20 C2843.35,1656.47 2828.80,1652.95 2822.65,1651.39 C2819.91,1650.75 2814.29,1649.59 2814.33,1649.38 C2814.67,1648.53 2830.68,1643.79 2838.08,1641.70 C2846.92,1638.98 2855.95,1635.40 2863.70,1631.57 C2868.87,1628.95 2874.89,1625.66 2877.26,1623.92 C2877.74,1623.56 2883.78,1618.71 2885.97,1617.39 C2888.00,1616.17 2896.16,1611.34 2896.40,1610.96 C2896.67,1611.06 2897.71,1610.99 2897.34,1636.11 C2897.17,1644.26 2894.61,1656.18 2893.65,1661.21 C2893.18,1663.09 2889.72,1671.38 2889.74,1671.90 C2886.11,1667.05 2877.88,1656.39 2874.15,1653.96 C2871.20,1652.09 2861.52,1647.99 2853.82,1645.79 C2853.82,1645.79 2881.70,1637.67 2881.70,1637.67 C2882.35,1638.22 2882.22,1642.98 2881.97,1646.38 C2881.73,1649.54 2881.27,1656.43 2881.28,1657.11 C2881.30,1657.94 2881.42,1658.99 2881.55,1659.73" fill="none" stroke="rgb(0, 0, 255)" stroke-width="25.00" stroke-opacity="1.00" stroke-linejoin="round"/>
</g>
<g stroke-linecap="round" id="Layer_49">
<path d="M2909.61,1753.05 C2909.37,1752.97 2909.19,1752.85 2909.05,1752.69 C2908.92,1752.56 2900.31,1740.65 2896.75,1735.76 C2892.24,1729.58 2882.02,1715.60 2876.28,1709.96 C2873.01,1706.78 2865.70,1700.76 2861.66,1697.92 C2853.37,1692.16 2835.45,1683.08 2827.39,1679.74 C2819.40,1676.45 2802.90,1670.99 2792.09,1668.05 C2782.21,1665.59 2752.14,1659.46 2750.88,1659.19 C2741.26,1657.13 2727.10,1652.76 2722.55,1650.46 C2720.31,1649.30 2717.08,1646.93 2716.09,1645.71 C2715.13,1644.50 2714.47,1642.00 2714.76,1640.72 C2715.09,1639.44 2717.00,1636.82 2718.58,1635.48 C2721.80,1632.80 2733.32,1627.19 2741.61,1624.26 C2748.88,1621.70 2771.51,1615.18 2781.76,1612.03 C2791.56,1608.83 2809.87,1602.23 2818.37,1598.84 C2826.44,1595.39 2846.91,1585.57 2852.76,1582.19 C2862.04,1576.79 2876.79,1565.36 2882.17,1559.40 C2883.75,1557.65 2901.73,1536.43 2904.36,1533.30 C2907.21,1536.79 2914.39,1545.57 2918.73,1550.86 C2921.48,1554.29 2925.80,1561.27 2927.78,1565.47 C2931.60,1573.63 2936.17,1590.43 2937.52,1597.89 C2938.63,1604.06 2940.34,1619.20 2941.04,1629.34 C2941.42,1638.15 2941.49,1656.94 2941.20,1663.36 C2940.66,1672.25 2938.93,1686.73 2937.35,1694.37 C2935.29,1704.19 2929.10,1721.22 2924.83,1728.79 C2921.17,1735.11 2911.47,1751.84 2911.20,1752.07 C2910.90,1752.33 2910.13,1752.79 2908.88,1753.44" fill="none" stroke="rgb(0, 0, 0)" stroke-width="15.00" stroke-opacity="1.00" stroke-linejoin="round"/>
</g>
</svg>
