<?xml version="1.0" encoding="UTF-8" standalone="no"?>
<!DOCTYPE svg PUBLIC "-//W3C//DTD SVG 1.1//EN" "http://www.w3.org/Graphics/SVG/1.1/DTD/svg11.dtd">
<svg width="4000.00" height="4000.00" viewBox="0.00 0.00 4000.00 4000.00" xmlns="http://www.w3.org/2000/svg" xmlns:xlink="http://www.w3.org/1999/xlink">
<g stroke-linecap="round" id="Layer_51">
<path d="M2902.98,1526.15 C2903.03,1526.08 2883.06,1548.73 2874.72,1554.95 C2870.08,1558.52 2859.50,1566.44 2853.58,1570.79 C2844.84,1577.13 2839.75,1580.16 2830.48,1584.91 C2822.84,1588.63 2802.34,1598.18 2794.83,1601.54 C2789.16,1604.04 2780.21,1606.35 2775.29,1607.73 C2771.29,1608.69 2757.54,1613.87 2755.32,1614.52 C2750.76,1615.82 2742.39,1617.92 2741.81,1618.12 C2735.47,1620.35 2723.65,1628.58 2722.39,1629.11 C2719.11,1630.52 2714.38,1633.12 2712.73,1634.39 C2712.44,1634.62 2709.47,1638.32 2708.00,1640.83 C2707.27,1642.10 2706.77,1644.38 2707.36,1645.59 C2707.94,1646.69 2710.90,1650.45 2711.67,1650.99 C2712.04,1651.24 2730.64,1660.48 2735.15,1662.40 C2741.02,1664.86 2775.64,1672.28 2782.15,1675.03 C2787.87,1677.45 2820.36,1684.80 2825.32,1686.29 C2829.33,1687.51 2843.02,1693.70 2844.41,1694.83 C2846.65,1696.30 2848.36,1698.31 2850.67,1699.91 C2851.06,1700.18 2858.42,1704.81 2859.48,1705.49 C2861.79,1706.99 2870.22,1716.90 2876.23,1722.92 C2878.18,1724.89 2880.26,1729.25 2881.11,1732.03 C2882.88,1737.89 2888.82,1749.04 2890.79,1752.69 C2893.92,1758.47 2897.81,1763.37 2899.76,1765.58 C2899.90,1765.77 2900.45,1767.76 2902.06,1769.43 C2906.31,1765.93 2909.95,1763.27 2910.15,1763.06 C2911.02,1762.17 2921.72,1751.29 2926.52,1745.99 C2927.01,1745.44 2934.44,1733.49 2939.17,1724.38 C2942.05,1718.74 2950.85,1695.62 2953.65,1688.13 C2955.84,1682.17 2958.50,1666.05 2958.77,1663.48 C2959.47,1656.48 2958.51,1640.29 2958.17,1637.57 C2954.63,1613.29 2949.60,1587.61 2949.51,1587.35 C2945.85,1576.64 2937.30,1560.54 2929.75,1547.94 C2922.91,1536.48 2907.00,1523.34 2906.32,1522.95 C2905.84,1522.64 2903.79,1521.32 2903.62,1521.04 C2902.53,1521.09 2901.98,1522.13 2901.74,1522.50 C2896.47,1529.18 2881.41,1548.29 2878.14,1551.35 C2868.88,1559.95 2851.15,1575.14 2840.99,1580.70 C2834.49,1584.26 2828.05,1588.79 2827.48,1589.00 C2826.97,1589.18 2826.20,1589.16 2825.18,1588.95" fill="none" stroke="rgb(255, 255, 255)" stroke-width="50.00" stroke-opacity="1.00" stroke-linejoin="round"/>
<path d="M2788.06,1676.11 C2790.62,1676.95 2814.26,1682.47 2815.56,1682.92 C2826.13,1686.56 2844.44,1696.53 2852.36,1700.97 C2854.53,1702.15 2859.62,1706.84 2861.94,1709.17 C2866.81,1714.70 2877.26,1725.15 2878.61,1726.81 C2880.86,1729.75 2890.02,1740.98 2890.56,1742.08 C2890.68,1742.33 2890.68,1742.47 2890.56,1742.48" fill="none" stroke="rgb(255, 255, 255)" stroke-width="50.00" stroke-opacity="1.00" stroke-linejoin="round"/>
</g>
<g stroke-linecap="round" id="Layer_50">
<path d="M2731.81,1642.47 C2733.29,1641.74 2740.84,1641.46 2741.99,1641.44 C2744.65,1641.40 2751.79,1640.24 2754.01,1639.51 C2758.17,1638.10 2762.44,1636.57 2765.70,1635.88 C2767.83,1635.44 2773.91,1634.68 2777.58,1633.80 C2788.32,1630.81 2807.82,1625.38 2818.05,1620.63 C2833.71,1614.25 2856.29,1601.73 2860.52,1598.95 C2861.04,1598.62 2876.01,1588.72 2880.83,1585.21 C2889.52,1579.18 2900.39,1564.91 2902.68,1561.27 C2903.61,1559.40 2903.56,1557.30 2903.57,1557.12 C2903.57,1557.12 2903.74,1556.10 2903.74,1556.10 C2903.74,1556.10 2903.98,1554.72 2903.98,1554.72 C2904.17,1554.26 2904.34,1554.12 2904.35,1554.65 C2904.42,1556.51 2911.77,1580.55 2913.41,1582.32 C2913.41,1582.32 2915.17,1585.21 2915.17,1585.21 C2915.17,1585.21 2916.32,1582.97 2916.32,1582.97 C2918.14,1584.40 2919.06,1612.10 2919.55,1623.51 C2919.81,1631.84 2921.37,1635.79 2921.33,1635.97 C2921.33,1635.97 2922.54,1634.24 2922.54,1634.24 C2922.47,1635.58 2917.80,1651.43 2917.70,1651.90 C2915.74,1661.69 2916.66,1667.63 2916.64,1667.80 C2917.91,1667.46 2921.13,1663.93 2922.99,1660.85 C2924.97,1657.53 2926.74,1650.99 2926.56,1650.99 C2926.63,1651.37 2925.04,1655.87 2924.27,1659.34 C2923.66,1662.20 2924.38,1667.89 2924.89,1671.48 C2925.28,1674.97 2922.56,1695.80 2922.22,1697.22 C2921.85,1698.72 2919.05,1705.78 2918.51,1707.82 C2916.34,1716.19 2914.29,1722.57 2911.26,1728.33 C2910.84,1729.13 2909.86,1731.11 2909.51,1731.43 C2909.51,1731.43 2909.13,1732.38 2909.13,1732.38 C2909.18,1732.61 2908.69,1729.50 2907.42,1726.57 C2905.71,1722.65 2902.04,1718.62 2901.83,1718.34 C2893.62,1707.41 2870.27,1684.71 2866.80,1682.37 C2856.77,1675.67 2837.97,1670.17 2834.55,1669.49 C2827.96,1668.49 2820.45,1666.00 2815.89,1664.38 C2810.45,1662.20 2799.09,1658.25 2793.18,1656.48 C2786.29,1653.70 2774.64,1652.36 2772.64,1652.12 C2768.57,1651.95 2763.54,1651.85 2761.57,1651.72" fill="none" stroke="rgb(255, 0, 0)" stroke-width="30.00" stroke-opacity="1.00" stroke-linejoin="round"/>
<path d="M2794.19,1643.06 C2794.19,1643.06 2793.39,1642.97 2793.39,1642.97 C2795.35,1643.61 2806.69,1641.86 2813.39,1639.77 C2830.00,1634.52 2866.81,1616.32 2878.49,1611.39 C2882.07,1609.80 2895.25,1600.76 2897.45,1597.76 C2897.72,1597.38 2903.02,1589.78 2903.69,1589.49 C2904.57,1592.19 2904.12,1605.20 2903.62,1610.03 C2903.30,1613.13 2901.91,1622.56 2901.87,1623.14 C2901.21,1633.90 2900.02,1643.87 2900.72,1650.00 C2901.49,1655.13 2904.08,1669.25 2904.72,1672.51 C2905.27,1675.31 2904.73,1687.68 2904.89,1690.93 C2904.88,1695.58 2903.82,1703.73 2903.82,1703.70 C2903.96,1703.47 2902.86,1698.70 2901.50,1695.90 C2900.11,1693.10 2896.96,1689.33 2894.32,1687.09 C2889.29,1682.92 2881.41,1676.34 2873.50,1670.93 C2863.13,1663.96 2852.27,1657.41 2846.25,1655.27 C2844.55,1654.69 2839.00,1654.08 2836.11,1653.89 C2830.59,1653.57 2826.02,1655.12 2825.64,1655.42 C2827.51,1653.48 2832.01,1651.92 2834.81,1651.09 C2846.10,1647.88 2851.54,1646.04 2861.54,1641.78 C2879.45,1633.93 2884.52,1630.63 2884.92,1630.23 C2885.11,1632.35 2884.04,1649.77 2884.28,1656.24 C2884.53,1663.26 2884.84,1672.62 2884.80,1673.85 C2882.79,1671.51 2879.63,1665.97 2878.07,1663.69 C2873.99,1658.31 2869.33,1652.09 2866.40,1649.13 C2868.01,1649.76 2873.06,1652.56 2874.63,1653.30 C2876.94,1654.38 2885.77,1657.97 2887.04,1658.61 C2890.25,1660.24 2895.17,1664.67 2896.63,1667.08 C2897.05,1667.78 2899.28,1672.92 2899.11,1674.15 C2899.11,1674.15 2898.37,1674.87 2898.37,1674.87 C2898.37,1674.87 2896.62,1674.68 2896.62,1674.68" fill="none" stroke="rgb(255, 0, 0)" stroke-width="30.00" stroke-opacity="1.00" stroke-linejoin="round"/>
</g>
<g stroke-linecap="round" id="Layer_49">
<path d="M2909.61,1753.05 C2909.37,1752.97 2909.19,1752.85 2909.05,1752.69 C2908.92,1752.56 2900.31,1740.65 2896.75,1735.76 C2892.24,1729.58 2882.02,1715.60 2876.28,1709.96 C2873.01,1706.78 2865.70,1700.76 2861.66,1697.92 C2853.37,1692.16 2835.45,1683.08 2827.39,1679.74 C2819.40,1676.45 2802.90,1670.99 2792.09,1668.05 C2782.21,1665.59 2752.14,1659.46 2750.88,1659.19 C2741.26,1657.13 2727.10,1652.76 2722.55,1650.46 C2720.31,1649.30 2717.08,1646.93 2716.09,1645.71 C2715.13,1644.50 2714.47,1642.00 2714.76,1640.72 C2715.09,1639.44 2717.00,1636.82 2718.58,1635.48 C2721.80,1632.80 2733.32,1627.19 2741.61,1624.26 C2748.88,1621.70 2771.51,1615.18 2781.76,1612.03 C2791.56,1608.83 2809.87,1602.23 2818.37,1598.84 C2826.44,1595.39 2846.91,1585.57 2852.76,1582.19 C2862.04,1576.79 2876.79,1565.36 2882.17,1559.40 C2883.75,1557.65 2901.73,1536.43 2904.36,1533.30 C2907.21,1536.79 2914.39,1545.57 2918.73,1550.86 C2921.48,1554.29 2925.80,1561.27 2927.78,1565.47 C2931.60,1573.63 2936.17,1590.43 2937.52,1597.89 C2938.63,1604.06 2940.34,1619.20 2941.04,1629.34 C2941.42,1638.15 2941.49,1656.94 2941.20,1663.36 C2940.66,1672.25 2938.93,1686.73 2937.35,1694.37 C2935.29,1704.19 2929.10,1721.22 2924.83,1728.79 C2921.17,1735.11 2911.47,1751.84 2911.20,1752.07 C2910.90,1752.33 2910.13,1752.79 2908.88,1753.44" fill="none" stroke="rgb(0, 0, 0)" stroke-width="15.00" stroke-opacity="1.00" stroke-linejoin="round"/>
</g>
</svg>
