<?xml version="1.0" encoding="UTF-8"?>
<!DOCTYPE svg  PUBLIC '-//W3C//DTD SVG 1.1//EN'  'http://www.w3.org/Graphics/SVG/1.1/DTD/svg11.dtd'>
<svg viewBox="0 0 4000 4000" xmlns="http://www.w3.org/2000/svg">
<g fill="none" stroke="#fff" stroke-linecap="round" stroke-linejoin="round" stroke-width="50">
<path d="m2903 1526.2c0.05-0.07-19.92 22.58-28.26 28.8-4.64 3.57-15.22 11.49-21.14 15.84-8.74 6.34-13.83 9.37-23.1 14.12-7.64 3.72-28.14 13.27-35.65 16.63-5.67 2.5-14.62 4.81-19.54 6.19-4 0.96-17.75 6.14-19.97 6.79-4.56 1.3-12.93 3.4-13.51 3.6-6.34 2.23-18.16 10.46-19.42 10.99-3.28 1.41-8.01 4.01-9.66 5.28-0.29 0.23-3.26 3.93-4.73 6.44-0.73 1.27-1.23 3.55-0.64 4.76 0.58 1.1 3.54 4.86 4.31 5.4 0.37 0.25 18.97 9.49 23.48 11.41 5.87 2.46 40.49 9.88 47 12.63 5.72 2.42 38.21 9.77 43.17 11.26 4.01 1.22 17.7 7.41 19.09 8.54 2.24 1.47 3.95 3.48 6.26 5.08 0.39 0.27 7.75 4.9 8.81 5.58 2.31 1.5 10.74 11.41 16.75 17.43 1.95 1.97 4.03 6.33 4.88 9.11 1.77 5.86 7.71 17.01 9.68 20.66 3.13 5.78 7.02 10.68 8.97 12.89 0.14 0.19 0.69 2.18 2.3 3.85 4.25-3.5 7.89-6.16 8.09-6.37 0.87-0.89 11.57-11.77 16.37-17.07 0.49-0.55 7.92-12.5 12.65-21.61 2.88-5.64 11.68-28.76 14.48-36.25 2.19-5.96 4.85-22.08 5.12-24.65 0.7-7-0.26-23.19-0.6-25.91-3.54-24.28-8.57-49.96-8.66-50.22-3.66-10.71-12.21-26.81-19.76-39.41-6.84-11.46-22.75-24.6-23.43-24.99-0.48-0.31-2.53-1.63-2.7-1.91-1.09 0.05-1.64 1.09-1.88 1.46-5.27 6.68-20.33 25.79-23.6 28.85-9.26 8.6-26.99 23.79-37.15 29.35-6.5 3.56-12.94 8.09-13.51 8.3-0.51 0.18-1.28 0.16-2.3-0.05"/>
<path d="m2788.1 1676.1c2.56 0.84 26.2 6.36 27.5 6.81 10.57 3.64 28.88 13.61 36.8 18.05 2.17 1.18 7.26 5.87 9.58 8.2 4.87 5.53 15.32 15.98 16.67 17.64 2.25 2.94 11.41 14.17 11.95 15.27 0.12 0.25 0.12 0.39 0 0.4"/>
</g>
<g fill="none" stroke="#00f" stroke-linecap="round" stroke-linejoin="round" stroke-width="25">
<path d="m2729.6 1640.8c4.44 0.51 14.5-0.91 17.52-2.05 2.73-1.06 14.99-4.44 21.23-5.5 2.21-0.41 27.37-8.38 27.38-8.38 18.38-6.94 34.6-14.72 40.74-17.72 9.02-4.45 21.8-11.72 23.67-12.93 0.56-0.37 14.88-11.75 19.43-15.2 5.06-3.36 17.97-13.78 19.06-14.78 2.23-2.07 7.58-11.09 7.68-11.22l0.68-1.61c0.01-0.04 0.21 3.64 0.9 6.48 2.87 11.81 10.22 26.55 10.6 27.52 2.08 5.41 4.1 14.38 4.67 20.6 0.49 5.63 1.5 24.68 1.8 49.73-0.04 1.58-3.23 19.77-3.59 21.73-1.63 7.65-1.62 15.94-1.57 16.78 0.35 5.55-6.98 23.58-8.63 28.37-0.1 0.48-3.14 9.18-3.21 10.94 0 0.23 0.08 0.49 0.25 0.76l-0.18 1.87c0.54-0.44-0.89-6.68-1.71-8.48-1.11-2.4-3.89-6.16-6.18-9.66-1.63-2.46-23.61-25.2-30.83-31.32-1.12-0.94-11.92-8.32-16.8-10.05-0.41-0.18-26.16-10.63-39.57-14.45-9.73-2.29-20.1-6.36-26.64-8-5.81-1.39-10.47-2.78-12.88-3.23-3.57-0.64-18.72-2.5-21.38-2.56-1.81-0.21-5.3-0.22-5.85-0.01l0.34-2.27"/>
<path d="m2790.4 1642.3c0.26 0.1 10.53-0.99 20.27-3.51 11.87-3.29 18.59-5.61 27.75-9.47 8.92-3.9 19.48-9.81 25.18-13.06 6.7-3.75 20.87-13.86 21.72-14.46 4.6-3.31 9.58-9.27 17.57-18.3 0.95-1.07 1.55-1.71 2.03-1.88 0.93 2.71 3.54 14.83 4.43 23.53 0.36 3.66-0.63 16.24-1.09 22.71-0.22 2.79-1.28 7.5-1.9 10.07-0.52 2.63-1.76 18.12-2.62 25.36-0.63 4.36-2.02 16.87-2.47 23.89-0.85 8.75-0.53 13.79-0.53 14.06 0.21 0.23-0.8-1.83-2.58-3.74-4.04-4.28-10.31-10.55-19.08-18.25-7.07-6.2-14.8-12.03-17.61-13.66-1.44-0.84-10.19-5.55-14.28-7.4-3.89-1.73-18.44-5.25-24.59-6.81-2.74-0.64-8.36-1.8-8.32-2.01 0.34-0.85 16.35-5.59 23.75-7.68 8.84-2.72 17.87-6.3 25.62-10.13 5.17-2.62 11.19-5.91 13.56-7.65 0.48-0.36 6.52-5.21 8.71-6.53 2.03-1.22 10.19-6.05 10.43-6.43 0.27 0.1 1.31 0.03 0.94 25.15-0.17 8.15-2.73 20.07-3.69 25.1-0.47 1.88-3.93 10.17-3.91 10.69-3.63-4.85-11.86-15.51-15.59-17.94-2.95-1.87-12.63-5.97-20.33-8.17 0 0 27.88-8.12 27.88-8.12 0.65 0.55 0.52 5.31 0.27 8.71-0.24 3.16-0.7 10.05-0.69 10.73 0.02 0.83 0.14 1.88 0.27 2.62"/>
</g>
<g stroke-linecap="round">
<path d="m2909.6 1753c-0.24-0.08-0.42-0.2-0.56-0.36-0.13-0.13-8.74-12.04-12.3-16.93-4.51-6.18-14.73-20.16-20.47-25.8-3.27-3.18-10.58-9.2-14.62-12.04-8.29-5.76-26.21-14.84-34.27-18.18-7.99-3.29-24.49-8.75-35.3-11.69-9.88-2.46-39.95-8.59-41.21-8.86-9.62-2.06-23.78-6.43-28.33-8.73-2.24-1.16-5.47-3.53-6.46-4.75-0.96-1.21-1.62-3.71-1.33-4.99 0.33-1.28 2.24-3.9 3.82-5.24 3.22-2.68 14.74-8.29 23.03-11.22 7.27-2.56 29.9-9.08 40.15-12.23 9.8-3.2 28.11-9.8 36.61-13.19 8.07-3.45 28.54-13.27 34.39-16.65 9.28-5.4 24.03-16.83 29.41-22.79 1.58-1.75 19.56-22.97 22.19-26.1 2.85 3.49 10.03 12.27 14.37 17.56 2.75 3.43 7.07 10.41 9.05 14.61 3.82 8.16 8.39 24.96 9.74 32.42 1.11 6.17 2.82 21.31 3.52 31.45 0.38 8.81 0.45 27.6 0.16 34.02-0.54 8.89-2.27 23.37-3.85 31.01-2.06 9.82-8.25 26.85-12.52 34.42-3.66 6.32-13.36 23.05-13.63 23.28-0.3 0.26-1.07 0.72-2.32 1.37" fill="none" stroke="#000" stroke-linejoin="round" stroke-width="15"/>
</g>
</svg>
