<?xml version="1.0" encoding="UTF-8" standalone="no"?>
<!DOCTYPE svg PUBLIC "-//W3C//DTD SVG 1.1//EN" "http://www.w3.org/Graphics/SVG/1.1/DTD/svg11.dtd">
<svg width="4000.00" height="4000.00" viewBox="0.00 0.00 4000.00 4000.00" xmlns="http://www.w3.org/2000/svg" xmlns:xlink="http://www.w3.org/1999/xlink">
<g stroke-linecap="round" id="Layer_51">
<path d="M2902.98,1526.15 C2903.03,1526.08 2883.06,1548.73 2874.72,1554.95 C2870.08,1558.52 2859.50,1566.44 2853.58,1570.79 C2844.84,1577.13 2839.75,1580.16 2830.48,1584.91 C2822.84,1588.63 2802.34,1598.18 2794.83,1601.54 C2789.16,1604.04 2780.21,1606.35 2775.29,1607.73 C2771.29,1608.69 2757.54,1613.87 2755.32,1614.52 C2750.76,1615.82 2742.39,1617.92 2741.81,1618.12 C2735.47,1620.35 2723.65,1628.58 2722.39,1629.11 C2719.11,1630.52 2714.38,1633.12 2712.73,1634.39 C2712.44,1634.62 2709.47,1638.32 2708.00,1640.83 C2707.27,1642.10 2706.77,1644.38 2707.36,1645.59 C2707.94,1646.69 2710.90,1650.45 2711.67,1650.99 C2712.04,1651.24 2730.64,1660.48 2735.15,1662.40 C2741.02,1664.86 2775.64,1672.28 2782.15,1675.03 C2787.87,1677.45 2820.36,1684.80 2825.32,1686.29 C2829.33,1687.51 2843.02,1693.70 2844.41,1694.83 C2846.65,1696.30 2848.36,1698.31 2850.67,1699.91 C2851.06,1700.18 2858.42,1704.81 2859.48,1705.49 C2861.79,1706.99 2870.22,1716.90 2876.23,1722.92 C2878.18,1724.89 2880.26,1729.25 2881.11,1732.03 C2882.88,1737.89 2888.82,1749.04 2890.79,1752.69 C2893.92,1758.47 2897.81,1763.37 2899.76,1765.58 C2899.90,1765.77 2900.45,1767.76 2902.06,1769.43 C2906.31,1765.93 2909.95,1763.27 2910.15,1763.06 C2911.02,1762.17 2921.72,1751.29 2926.52,1745.99 C2927.01,1745.44 2934.44,1733.49 2939.17,1724.38 C2942.05,1718.74 2950.85,1695.62 2953.65,1688.13 C2955.84,1682.17 2958.50,1666.05 2958.77,1663.48 C2959.47,1656.48 2958.51,1640.29 2958.17,1637.57 C2954.63,1613.29 2949.60,1587.61 2949.51,1587.35 C2945.85,1576.64 2937.30,1560.54 2929.75,1547.94 C2922.91,1536.48 2907.00,1523.34 2906.32,1522.95 C2905.84,1522.64 2903.79,1521.32 2903.62,1521.04 C2902.53,1521.09 2901.98,1522.13 2901.74,1522.50 C2896.47,1529.18 2881.41,1548.29 2878.14,1551.35 C2868.88,1559.95 2851.15,1575.14 2840.99,1580.70 C2834.49,1584.26 2828.05,1588.79 2827.48,1589.00 C2826.97,1589.18 2826.20,1589.16 2825.18,1588.95" fill="none" stroke="rgb(255, 255, 255)" stroke-width="50.00" stroke-opacity="1.00" stroke-linejoin="round"/>
<path d="M2788.06,1676.11 C2790.62,1676.95 2814.26,1682.47 2815.56,1682.92 C2826.13,1686.56 2844.44,1696.53 2852.36,1700.97 C2854.53,1702.15 2859.62,1706.84 2861.94,1709.17 C2866.81,1714.70 2877.26,1725.15 2878.61,1726.81 C2880.86,1729.75 2890.02,1740.98 2890.56,1742.08 C2890.68,1742.33 2890.68,1742.47 2890.56,1742.48" fill="none" stroke="rgb(255, 255, 255)" stroke-width="50.00" stroke-opacity="1.00" stroke-linejoin="round"/>
</g>
<g stroke-linecap="round" id="Layer_53">
<path d="M2904.34,1553.00 C2904.34,1553.00 2904.13,1551.24 2904.13,1551.24 C2904.79,1551.37 2912.60,1565.95 2915.08,1571.90 C2917.97,1578.87 2921.87,1590.51 2922.31,1594.21 C2923.68,1609.02 2924.88,1622.05 2925.21,1639.36 C2924.56,1657.19 2923.16,1668.46 2921.80,1685.33 C2921.55,1689.07 2919.29,1703.05 2918.80,1705.27 C2912.74,1729.99 2910.84,1732.58 2910.74,1732.64 C2910.15,1731.89 2905.13,1721.49 2903.41,1718.29 C2898.37,1709.69 2894.42,1704.13 2893.49,1703.00 C2891.24,1700.39 2880.91,1693.51 2874.56,1690.35 C2871.86,1689.01 2852.75,1678.39 2848.30,1676.72 C2847.37,1676.37 2832.51,1671.34 2826.86,1668.70 C2823.29,1667.16 2819.85,1665.35 2817.21,1664.50 C2813.32,1663.27 2791.32,1655.91 2789.67,1655.58 C2788.51,1655.35 2780.19,1654.00 2776.65,1652.79 C2776.22,1652.64 2763.29,1648.94 2761.78,1648.55 C2756.29,1647.18 2747.31,1646.41 2743.17,1645.91 C2734.15,1644.27 2731.30,1642.94 2731.10,1642.98 C2730.85,1642.73 2734.31,1639.66 2734.50,1639.57 C2735.63,1639.04 2749.65,1634.13 2753.99,1633.96 C2758.88,1633.88 2769.91,1633.01 2778.10,1631.30 C2792.78,1628.42 2818.40,1622.24 2824.54,1620.26 C2825.87,1619.83 2846.57,1611.41 2849.46,1610.15 C2854.95,1607.74 2875.43,1596.60 2876.03,1595.04 C2872.58,1595.87 2863.05,1602.18 2857.66,1604.09 C2851.72,1606.21 2844.23,1608.43 2834.02,1612.28 C2827.56,1614.87 2816.19,1619.40 2807.60,1622.11 C2804.30,1623.13 2793.59,1624.83 2791.01,1624.79 C2794.66,1623.05 2810.28,1617.43 2816.94,1615.19 C2817.45,1614.99 2840.46,1604.93 2844.75,1602.83 C2852.62,1598.95 2859.12,1594.87 2867.56,1588.12 C2868.48,1587.39 2874.91,1582.07 2876.71,1580.81 C2880.43,1578.23 2885.84,1575.52 2886.36,1575.21 C2888.42,1573.95 2899.88,1561.58 2899.90,1561.57" fill="none" stroke="rgb(0, 255, 0)" stroke-width="25.00" stroke-opacity="1.00" stroke-linejoin="round"/>
<path d="M2902.07,1568.18 C2902.26,1568.19 2902.40,1568.25 2902.48,1568.39 C2903.48,1570.11 2905.81,1587.41 2906.03,1591.14 C2906.82,1606.28 2906.15,1620.53 2906.19,1650.01 C2905.61,1670.12 2904.13,1685.34 2904.13,1701.24 C2903.60,1699.70 2895.60,1689.26 2894.01,1687.50 C2891.88,1685.17 2881.73,1676.56 2876.86,1673.66 C2875.16,1672.66 2866.54,1668.55 2866.01,1668.29 C2863.51,1667.06 2855.68,1664.46 2855.05,1664.20 C2854.85,1664.12 2837.45,1654.89 2829.96,1652.48 C2823.45,1650.26 2811.46,1646.24 2804.55,1645.04 C2804.11,1644.97 2798.75,1644.21 2793.45,1643.29 C2792.02,1643.04 2785.92,1643.46 2783.88,1643.39 C2791.12,1641.43 2805.56,1637.92 2809.15,1636.92 C2823.90,1632.81 2836.77,1627.76 2860.03,1619.86 C2863.57,1618.65 2869.78,1616.33 2872.40,1614.61 C2873.45,1613.91 2878.26,1609.59 2881.86,1606.46 C2884.75,1603.92 2887.92,1599.95 2890.26,1596.10 C2896.11,1586.28 2896.29,1585.25 2896.28,1584.71 C2896.23,1586.35 2892.02,1628.36 2890.36,1644.97 C2889.84,1649.77 2889.48,1664.24 2889.88,1666.53 C2889.96,1667.02 2890.92,1670.78 2890.91,1671.07 C2890.20,1670.23 2886.32,1664.73 2883.97,1662.04 C2881.66,1659.42 2876.79,1654.14 2874.60,1652.46 C2874.32,1652.24 2864.82,1645.67 2863.74,1645.04 C2860.85,1643.40 2856.69,1642.88 2852.17,1642.98 C2850.70,1643.01 2842.88,1642.63 2842.56,1642.56 C2841.95,1642.42 2839.98,1641.53 2839.15,1641.22 C2838.95,1641.13 2836.17,1638.15 2835.95,1638.02 C2841.37,1637.75 2850.01,1635.01 2859.50,1632.54 C2870.96,1629.50 2881.29,1626.45 2881.61,1626.45 C2881.46,1627.03 2877.88,1641.30 2877.69,1647.42 C2877.67,1648.31 2878.75,1651.12 2879.24,1651.55 C2879.52,1651.80 2880.25,1652.25 2881.40,1652.89" fill="none" stroke="rgb(0, 255, 0)" stroke-width="25.00" stroke-opacity="1.00" stroke-linejoin="round"/>
</g>
<g stroke-linecap="round" id="Layer_49">
<path d="M2909.61,1753.05 C2909.37,1752.97 2909.19,1752.85 2909.05,1752.69 C2908.92,1752.56 2900.31,1740.65 2896.75,1735.76 C2892.24,1729.58 2882.02,1715.60 2876.28,1709.96 C2873.01,1706.78 2865.70,1700.76 2861.66,1697.92 C2853.37,1692.16 2835.45,1683.08 2827.39,1679.74 C2819.40,1676.45 2802.90,1670.99 2792.09,1668.05 C2782.21,1665.59 2752.14,1659.46 2750.88,1659.19 C2741.26,1657.13 2727.10,1652.76 2722.55,1650.46 C2720.31,1649.30 2717.08,1646.93 2716.09,1645.71 C2715.13,1644.50 2714.47,1642.00 2714.76,1640.72 C2715.09,1639.44 2717.00,1636.82 2718.58,1635.48 C2721.80,1632.80 2733.32,1627.19 2741.61,1624.26 C2748.88,1621.70 2771.51,1615.18 2781.76,1612.03 C2791.56,1608.83 2809.87,1602.23 2818.37,1598.84 C2826.44,1595.39 2846.91,1585.57 2852.76,1582.19 C2862.04,1576.79 2876.79,1565.36 2882.17,1559.40 C2883.75,1557.65 2901.73,1536.43 2904.36,1533.30 C2907.21,1536.79 2914.39,1545.57 2918.73,1550.86 C2921.48,1554.29 2925.80,1561.27 2927.78,1565.47 C2931.60,1573.63 2936.17,1590.43 2937.52,1597.89 C2938.63,1604.06 2940.34,1619.20 2941.04,1629.34 C2941.42,1638.15 2941.49,1656.94 2941.20,1663.36 C2940.66,1672.25 2938.93,1686.73 2937.35,1694.37 C2935.29,1704.19 2929.10,1721.22 2924.83,1728.79 C2921.17,1735.11 2911.47,1751.84 2911.20,1752.07 C2910.90,1752.33 2910.13,1752.79 2908.88,1753.44" fill="none" stroke="rgb(0, 0, 0)" stroke-width="15.00" stroke-opacity="1.00" stroke-linejoin="round"/>
</g>
</svg>
