<?xml version="1.0" encoding="UTF-8" standalone="no"?>
<!DOCTYPE svg PUBLIC "-//W3C//DTD SVG 1.1//EN" "http://www.w3.org/Graphics/SVG/1.1/DTD/svg11.dtd">
<svg width="4000.00" height="4000.00" viewBox="0.00 0.00 4000.00 4000.00" xmlns="http://www.w3.org/2000/svg" xmlns:xlink="http://www.w3.org/1999/xlink">
<g stroke-linecap="round" id="Layer_37">
<path d="M2369.17,2856.00 C2367.91,2855.20 2366.50,2850.67 2365.17,2847.17 C2363.90,2843.38 2364.00,2835.83 2364.00,2832.83 C2364.17,2829.52 2369.93,2823.21 2370.50,2822.50 C2371.72,2820.99 2377.06,2816.94 2380.33,2815.33 C2381.38,2814.98 2388.36,2813.30 2391.67,2813.33 C2392.56,2813.34 2396.49,2812.27 2399.17,2812.83 C2404.47,2814.04 2411.03,2813.91 2412.33,2815.00 C2412.45,2815.10 2416.74,2816.16 2418.83,2817.33 C2419.26,2817.58 2420.83,2819.17 2421.33,2819.67 C2421.33,2819.67 2423.33,2823.00 2423.33,2823.00 C2424.20,2824.15 2425.69,2829.30 2426.00,2832.50 C2426.08,2833.44 2426.66,2836.86 2426.67,2837.67 C2426.67,2838.37 2426.03,2841.98 2425.33,2844.00 C2425.20,2844.37 2424.11,2850.14 2424.00,2850.33 C2421.50,2854.44 2418.71,2857.76 2418.50,2858.00 C2418.37,2857.86 2411.12,2862.36 2407.31,2863.49 C2405.54,2864.01 2400.14,2866.10 2396.00,2866.00 C2394.83,2865.97 2390.48,2865.97 2389.67,2866.00 C2389.36,2866.01 2385.50,2865.33 2384.17,2865.33 C2381.96,2864.35 2377.63,2863.49 2377.17,2862.67 C2374.90,2862.43 2371.56,2858.50 2368.67,2853.83 C2366.89,2850.95 2364.79,2845.02 2364.67,2843.67 C2364.64,2843.27 2365.81,2839.11 2366.67,2837.83 C2366.85,2837.55 2367.17,2837.19 2367.60,2836.73" fill="none" stroke="rgb(255, 255, 255)" stroke-width="50.00" stroke-opacity="1.00" stroke-linejoin="round"/>
<path d="M2154.67,2926.67 C2153.60,2928.63 2152.66,2930.58 2152.67,2931.17 C2152.71,2934.57 2157.95,2950.65 2158.67,2951.67 C2161.41,2955.42 2175.29,2968.91 2180.00,2971.50 C2185.11,2974.29 2193.40,2974.74 2198.02,2974.60 C2199.51,2974.55 2202.04,2975.20 2203.00,2975.33 C2203.50,2975.40 2214.35,2975.32 2215.00,2975.33 C2217.99,2975.42 2225.49,2973.25 2225.67,2973.17 C2227.79,2972.19 2230.47,2969.72 2233.00,2967.17 C2234.01,2966.11 2240.31,2957.78 2242.17,2954.00 C2242.47,2953.39 2247.31,2944.17 2251.00,2937.00 C2252.76,2933.68 2252.70,2918.38 2252.67,2918.17 C2252.61,2917.80 2251.71,2914.79 2251.50,2914.00 C2251.16,2912.76 2250.14,2911.55 2249.83,2911.00 C2249.74,2910.84 2249.33,2908.87 2248.83,2908.17 C2246.28,2904.53 2244.58,2900.50 2243.33,2898.50 C2242.08,2896.92 2238.94,2892.35 2238.33,2891.83 C2238.14,2891.68 2235.72,2889.99 2229.60,2888.24 C2227.36,2887.60 2213.93,2884.51 2212.83,2884.67 C2212.42,2884.73 2211.34,2884.04 2211.17,2884.00 C2210.69,2883.90 2207.11,2884.07 2206.67,2884.00 C2206.15,2883.92 2204.85,2883.40 2204.00,2883.33 C2202.97,2883.25 2192.09,2885.53 2189.00,2885.33 C2187.02,2885.20 2180.08,2887.58 2179.50,2887.83 C2175.93,2889.23 2172.49,2891.30 2168.17,2895.17 C2165.58,2897.02 2162.81,2899.33 2161.83,2900.67 C2160.49,2902.17 2153.55,2912.20 2152.67,2914.33 C2151.67,2916.67 2149.27,2922.50 2149.17,2923.50 C2148.91,2924.94 2148.07,2927.13 2148.00,2929.67 C2147.93,2933.49 2148.42,2936.21 2150.07,2940.76 C2150.97,2943.26 2152.83,2948.42 2154.00,2950.17 C2155.92,2952.98 2170.28,2966.08 2175.00,2968.00 C2177.90,2969.15 2181.58,2971.08 2183.00,2971.33 C2183.53,2971.42 2187.04,2972.59 2187.67,2972.67 C2188.52,2972.78 2191.44,2972.59 2191.67,2972.67 C2193.85,2973.39 2194.77,2973.29 2197.50,2974.00 C2198.07,2974.15 2201.32,2974.53 2202.50,2974.67" fill="none" stroke="rgb(255, 255, 255)" stroke-width="50.00" stroke-opacity="1.00" stroke-linejoin="round"/>
<path d="M2226.00,2652.67 C2224.56,2653.57 2223.72,2654.85 2223.17,2657.17 C2223.00,2657.89 2222.11,2660.87 2222.00,2661.67 C2221.39,2666.29 2222.23,2676.97 2222.67,2679.67 C2222.68,2679.75 2225.53,2687.35 2225.67,2687.67 C2227.10,2690.92 2231.46,2693.63 2231.83,2693.83 C2232.21,2694.05 2236.59,2697.14 2237.33,2697.33 C2238.32,2697.57 2242.52,2699.22 2243.00,2699.33 C2243.26,2699.39 2256.00,2699.32 2256.50,2699.33 C2258.96,2699.42 2270.27,2694.74 2270.67,2694.50 C2271.47,2694.00 2275.98,2690.25 2277.33,2688.50 C2277.74,2687.96 2279.86,2685.20 2281.67,2680.67 C2282.75,2678.11 2282.57,2671.51 2282.67,2669.50 C2282.71,2668.64 2281.57,2663.02 2281.33,2662.67 C2281.21,2662.48 2280.75,2659.01 2280.00,2657.67 C2279.34,2656.52 2278.09,2653.91 2276.17,2651.67 C2272.75,2648.42 2267.92,2643.58 2266.50,2642.00 C2266.50,2642.00 2265.67,2641.33 2265.67,2641.33 C2265.64,2641.34 2263.54,2640.27 2262.83,2640.00 C2262.52,2639.89 2260.47,2639.41 2256.00,2639.33 C2250.93,2639.26 2247.25,2639.92 2246.33,2640.00 C2242.09,2640.81 2233.57,2645.14 2233.33,2645.67 C2233.14,2646.07 2230.61,2647.96 2227.30,2652.43 C2225.43,2654.98 2224.34,2657.02 2223.17,2660.00 C2222.62,2661.44 2222.82,2669.16 2223.50,2671.67 C2223.71,2672.42 2228.18,2684.70 2228.68,2685.71 C2230.58,2689.47 2239.08,2696.40 2241.83,2697.67 C2243.58,2698.45 2251.64,2701.53 2253.83,2702.00 C2254.62,2702.17 2258.28,2702.63 2259.33,2702.67 C2259.71,2702.68 2268.49,2700.19 2269.00,2700.00 C2270.47,2699.43 2277.12,2695.47 2279.67,2693.00 C2282.16,2690.56 2285.31,2685.71 2285.83,2683.83 C2286.08,2682.67 2286.79,2679.38 2286.67,2675.67 C2286.59,2673.51 2287.74,2667.40 2287.33,2664.33 C2287.08,2663.25 2286.52,2659.08 2284.50,2655.17 C2282.77,2651.86 2280.59,2647.20 2278.67,2644.83 C2275.97,2641.56 2272.23,2639.58 2271.67,2639.33 C2267.75,2637.91 2261.67,2636.40 2255.67,2638.00 C2253.20,2638.67 2249.56,2638.84 2245.67,2640.00 C2245.45,2640.06 2239.39,2642.07 2237.33,2643.00 C2234.76,2644.07 2231.06,2647.06 2229.57,2648.46 C2228.26,2649.72 2226.21,2651.90 2225.67,2652.83 C2225.24,2653.61 2224.27,2657.57 2224.50,2658.33 C2224.72,2659.01 2227.07,2662.76 2228.18,2664.58" fill="none" stroke="rgb(255, 255, 255)" stroke-width="50.00" stroke-opacity="1.00" stroke-linejoin="round"/>
</g>
<g stroke-linecap="round" id="Layer_38">
<path d="M2193.33,2928.67 C2193.47,2926.77 2193.64,2925.66 2193.83,2925.33 C2194.15,2924.83 2197.34,2925.90 2197.83,2926.00 C2198.41,2926.15 2202.12,2926.58 2202.83,2927.00 C2203.31,2927.28 2204.14,2928.06 2205.33,2929.33 C2205.33,2929.33 2208.50,2925.33 2208.50,2925.33 C2208.50,2925.33 2208.00,2927.33 2208.00,2927.33 C2208.00,2927.33 2207.33,2926.50 2207.33,2926.50 C2207.33,2926.50 2208.67,2926.17 2208.67,2926.17 C2208.67,2926.17 2208.67,2927.67 2208.67,2927.67 C2208.67,2927.67 2207.33,2927.83 2207.33,2927.83 C2207.33,2927.83 2207.33,2926.67 2207.33,2926.67 C2207.33,2926.67 2208.33,2926.67 2208.33,2926.67 C2208.33,2926.67 2208.00,2928.00 2208.00,2928.00 C2207.82,2927.89 2206.62,2928.66 2206.50,2928.67 C2206.21,2928.68 2197.08,2925.70 2194.00,2924.67 C2197.77,2926.45 2198.97,2926.74 2204.80,2927.70 C2206.55,2927.99 2210.44,2928.63 2210.50,2928.67 C2210.54,2928.69 2210.15,2928.69 2209.33,2928.67" fill="none" stroke="rgb(0, 255, 0)" stroke-width="80.00" stroke-opacity="1.00" stroke-linejoin="round"/>
<path d="M2393.33,2837.33 C2393.38,2837.36 2393.22,2837.35 2393.17,2837.33 C2392.94,2837.27 2392.22,2837.05 2391.00,2836.67 C2391.79,2836.68 2395.30,2836.58 2395.67,2836.67 C2396.06,2836.76 2396.27,2837.33 2396.67,2837.33 C2396.98,2837.33 2397.92,2837.11 2399.50,2836.67 C2399.50,2836.67 2400.67,2836.00 2400.67,2836.00 C2400.10,2837.53 2399.66,2838.42 2399.33,2838.67 C2398.66,2839.16 2396.59,2838.67 2394.33,2839.33 C2392.71,2839.78 2389.99,2840.34 2388.00,2840.67 C2397.84,2837.89 2402.69,2838.02 2404.67,2838.00" fill="none" stroke="rgb(255, 0, 0)" stroke-width="50.00" stroke-opacity="1.00" stroke-linejoin="round"/>
<path d="M2258.45,2663.41 C2256.95,2663.41 2254.34,2663.42 2253.94,2663.60 C2253.16,2663.95 2248.96,2667.47 2248.87,2667.73 C2248.35,2669.25 2249.83,2672.03 2251.31,2673.18 C2251.31,2673.18 2252.44,2673.93 2252.44,2673.93 C2255.01,2673.84 2256.44,2673.60 2257.14,2672.99 C2257.98,2672.24 2258.47,2670.66 2258.64,2670.17 C2258.79,2669.72 2259.03,2667.46 2259.20,2666.79 C2259.32,2666.30 2260.05,2664.93 2259.95,2662.28 C2259.95,2662.16 2259.93,2661.78 2259.95,2661.91 C2259.95,2661.91 2259.20,2661.16 2259.20,2661.16 C2259.20,2661.16 2258.45,2661.91 2258.45,2661.91 C2258.45,2661.91 2256.20,2662.66 2256.20,2662.66 C2256.20,2662.66 2251.69,2664.16 2251.69,2664.16 C2251.23,2664.63 2249.39,2666.52 2249.43,2667.92 C2249.47,2668.64 2249.32,2672.29 2249.43,2672.42 C2249.66,2672.66 2253.69,2674.43 2254.32,2674.49 C2255.24,2674.55 2258.57,2673.28 2259.01,2672.61 C2259.30,2672.15 2259.98,2667.50 2259.95,2666.98 C2259.85,2665.56 2258.91,2663.82 2257.89,2662.66 C2257.89,2662.66 2256.20,2662.66 2256.20,2662.66" fill="none" stroke="rgb(0, 0, 255)" stroke-width="50.00" stroke-opacity="1.00" stroke-linejoin="round"/>
</g>
<g stroke-linecap="round" id="Layer_35">
<path d="M2217.48,2886.31 C2214.07,2885.28 2206.79,2884.17 2203.01,2884.11 C2199.22,2884.08 2191.15,2885.01 2187.23,2885.93 C2183.29,2886.89 2176.26,2889.73 2173.20,2891.60 C2170.16,2893.49 2164.96,2898.18 2162.82,2900.97 C2160.70,2903.78 2157.40,2910.23 2156.22,2913.88 C2155.07,2917.54 2153.65,2925.95 2153.59,2929.82 C2153.56,2933.76 2154.85,2941.06 2156.17,2944.39 C2157.51,2947.67 2161.43,2953.51 2163.94,2956.07 C2166.45,2958.58 2172.61,2963.01 2176.26,2964.93 C2179.97,2966.85 2188.48,2970.05 2192.51,2971.01 C2196.57,2971.94 2204.33,2972.53 2208.02,2972.19 C2211.70,2971.80 2218.69,2969.76 2221.97,2968.11 C2225.24,2966.42 2231.34,2961.78 2234.17,2958.82 C2236.94,2955.88 2242.15,2948.67 2244.16,2945.08 C2246.11,2941.56 2248.77,2934.71 2249.48,2931.38 C2250.17,2927.96 2250.26,2921.05 2249.52,2917.61 C2248.73,2914.10 2245.50,2907.37 2243.09,2904.22 C2240.72,2901.18 2234.50,2895.32 2231.31,2893.07 C2228.08,2890.83 2221.21,2887.47 2217.48,2886.31 Z" fill="none" stroke="rgb(0, 0, 0)" stroke-width="10.00" stroke-opacity="1.00" stroke-linejoin="round"/>
<path d="M2375.69,2820.97 C2373.83,2823.06 2368.38,2829.21 2367.52,2832.35 C2366.55,2836.14 2367.54,2843.83 2368.68,2847.44 C2369.43,2849.72 2371.14,2853.64 2372.15,2855.22 C2373.25,2856.90 2376.20,2859.79 2377.85,2860.81 C2380.99,2862.68 2387.90,2864.15 2391.43,2864.16 C2395.17,2864.12 2404.12,2862.63 2407.91,2861.36 C2411.74,2860.04 2417.92,2856.28 2420.09,2853.95 C2422.53,2851.25 2425.43,2844.66 2425.89,2840.77 C2426.32,2836.82 2425.36,2828.78 2424.10,2825.70 C2422.77,2822.60 2418.21,2817.75 2414.94,2816.19 C2411.50,2814.61 2403.98,2813.62 2398.41,2813.49 C2395.44,2813.43 2386.13,2813.95 2382.51,2815.29 C2380.15,2816.18 2376.58,2820.08 2375.69,2820.97 Z" fill="none" stroke="rgb(0, 0, 0)" stroke-width="10.00" stroke-opacity="1.00" stroke-linejoin="round"/>
<path d="M2253.11,2640.02 C2251.76,2640.03 2249.14,2639.69 2248.96,2639.74 C2248.22,2639.97 2239.89,2642.47 2238.80,2643.02 C2236.34,2644.32 2230.78,2649.54 2228.86,2652.91 C2226.83,2656.57 2225.03,2663.21 2224.91,2667.08 C2224.85,2670.38 2225.85,2677.87 2226.81,2681.31 C2227.86,2685.00 2230.31,2690.09 2231.86,2691.42 C2233.63,2692.87 2238.82,2695.75 2241.30,2696.68 C2243.85,2697.60 2248.61,2698.60 2250.88,2698.69 C2255.58,2698.82 2267.16,2696.02 2270.74,2694.20 C2274.05,2692.47 2278.14,2688.63 2280.52,2684.93 C2282.21,2682.23 2284.15,2677.30 2284.53,2674.94 C2284.89,2672.49 2284.69,2666.65 2284.07,2663.30 C2282.82,2656.79 2278.49,2648.77 2276.03,2645.80 C2273.93,2643.31 2268.89,2640.99 2265.92,2640.43 C2263.17,2639.94 2253.69,2640.01 2253.11,2640.02 Z" fill="none" stroke="rgb(0, 0, 0)" stroke-width="10.00" stroke-opacity="1.00" stroke-linejoin="round"/>
</g>
</svg>
